# This file uses centimeters as units for non-parametric coordinates.

mtllib 0_5x1.mtl
g default
v -0.500000 -0.250000 -0.500000
v 0.500000 -0.250000 -0.500000
v -0.500000 0.250000 -0.500000
v 0.500000 0.250000 -0.500000
v 0.500000 -0.250000 0.500000
v 0.500000 0.250000 0.500000
vt 0.340205 0.456251
vt 0.500000 0.456251
vt 0.500000 0.536149
vt 0.340205 0.536149
vt 0.659795 0.456251
vt 0.659795 0.536149
vn 0.000000 0.000000 1.000000
vn 0.000000 0.000000 1.000000
vn 0.000000 0.000000 1.000000
vn 0.000000 0.000000 1.000000
vn -1.000000 0.000000 0.000000
vn -1.000000 0.000000 0.000000
vn -1.000000 0.000000 0.000000
vn -1.000000 0.000000 0.000000
s off
g W_C_I_0_5x1 Inside_Corner
usemtl initialShadingGroup
f 1/1/1 2/2/2 4/3/3 3/4/4
f 4/3/5 2/2/6 5/5/7 6/6/8
