# This file uses centimeters as units for non-parametric coordinates.

mtllib 2x2.mtl
g default
v -1.000000 -1.000000 -1.000000
v 1.000000 -1.000000 -1.000000
v -1.000000 1.000000 -1.000000
v 1.000000 1.000000 -1.000000
v 1.000000 -1.000000 1.000000
v 1.000000 1.000000 1.000000
vt 0.180410 0.336405
vt 0.500000 0.336405
vt 0.500000 0.655995
vt 0.180410 0.655995
vt 0.819591 0.336405
vt 0.819591 0.655995
vn 0.000000 0.000000 1.000000
vn 0.000000 0.000000 1.000000
vn 0.000000 0.000000 1.000000
vn 0.000000 0.000000 1.000000
vn -1.000000 0.000000 0.000000
vn -1.000000 0.000000 0.000000
vn -1.000000 0.000000 0.000000
vn -1.000000 0.000000 0.000000
s off
g W_C_I_2x2 Inside_Corner
usemtl initialShadingGroup
f 1/1/1 2/2/2 4/3/3 3/4/4
f 4/3/5 2/2/6 5/5/7 6/6/8
