# This file uses centimeters as units for non-parametric coordinates.

mtllib 3x2.mtl
g default
v 1.000000 1.500000 -1.000000
v -1.000000 1.500000 -1.000000
v 1.000000 -1.500000 -1.000000
v -1.000000 -1.500000 -1.000000
v 1.000000 1.500000 1.000000
v 1.000000 -1.500000 1.000000
vt 0.500000 0.735893
vt 0.180410 0.735893
vt 0.180410 0.256507
vt 0.500000 0.256507
vt 0.819591 0.256507
vt 0.819591 0.735893
vn 0.000000 0.000000 1.000000
vn 0.000000 0.000000 1.000000
vn 0.000000 0.000000 1.000000
vn 0.000000 0.000000 1.000000
vn -1.000000 0.000000 0.000000
vn -1.000000 0.000000 0.000000
vn -1.000000 0.000000 0.000000
vn -1.000000 0.000000 0.000000
s off
g W_C_I_3x2 Inside_Corner
usemtl initialShadingGroup
f 1/1/1 2/2/2 4/3/3 3/4/4
f 1/1/5 3/4/6 6/5/7 5/6/8
