# This file uses centimeters as units for non-parametric coordinates.

mtllib P_Box.mtl
g default
v 0.400000 0.400000 -0.500000
v 0.500000 0.400000 -0.400000
v 0.400000 0.500000 -0.400000
v 0.400000 -0.400000 0.500000
v 0.500000 -0.400000 0.400000
v 0.400000 -0.500000 0.400000
v -0.400000 0.500000 0.400000
v -0.500000 0.400000 0.400000
v -0.400000 -0.500000 -0.400000
v -0.500000 -0.400000 -0.400000
v -0.400000 -0.400000 -0.500000
v -0.400000 0.400000 0.500000
v -0.477110 -0.320000 -0.400000
v -0.477110 0.400000 0.320000
v -0.477110 0.400000 -0.400000
v -0.400000 0.477110 0.320000
v 0.320000 0.477110 -0.400000
v -0.400000 0.477110 -0.400000
v 0.477110 0.400000 -0.320000
v 0.477110 -0.320000 0.400000
v 0.477110 0.400000 0.400000
v 0.477110 0.320000 -0.400000
v 0.477110 -0.400000 -0.400000
v 0.477110 -0.400000 0.320000
v 0.400000 0.320000 -0.477110
v -0.320000 -0.400000 -0.477110
v 0.400000 -0.400000 -0.477110
v 0.320000 0.400000 -0.477110
v -0.400000 0.400000 -0.477110
v -0.400000 -0.320000 -0.477110
v -0.477110 0.320000 0.400000
v -0.477110 -0.400000 0.400000
v -0.477110 -0.400000 -0.320000
v 0.320000 -0.400000 0.477110
v -0.400000 -0.400000 0.477110
v -0.400000 0.320000 0.477110
v 0.400000 -0.320000 0.477110
v -0.320000 0.400000 0.477110
v 0.400000 0.400000 0.477110
v -0.320000 0.477110 0.400000
v 0.400000 0.477110 -0.320000
v 0.400000 0.477110 0.400000
v 0.320000 -0.477110 0.400000
v -0.400000 -0.477110 -0.320000
v -0.400000 -0.477110 0.400000
v -0.320000 -0.477110 -0.400000
v 0.400000 -0.477110 0.320000
v 0.400000 -0.477110 -0.400000
v -0.488556 -0.488556 0.500000
v -0.500000 -0.488556 0.488556
v -0.488556 -0.500000 0.488556
v 0.320000 -0.500000 0.488556
v 0.320000 -0.488556 0.500000
v -0.488556 -0.500000 -0.488556
v -0.500000 -0.488556 -0.488556
v -0.488556 -0.488556 -0.500000
v -0.320000 -0.488556 -0.500000
v -0.320000 -0.500000 -0.488556
v 0.500000 0.488556 -0.488556
v 0.488556 0.488556 -0.500000
v 0.488556 0.500000 -0.488556
v 0.500000 0.320000 -0.488556
v 0.488556 0.320000 -0.500000
v 0.488556 -0.488556 -0.500000
v 0.500000 -0.488556 -0.488556
v 0.488556 -0.500000 -0.488556
v 0.500000 -0.488556 0.320000
v 0.488556 -0.500000 0.320000
v -0.500000 0.488556 -0.488556
v -0.488556 0.500000 -0.488556
v -0.488556 0.488556 -0.500000
v -0.488556 0.500000 0.320000
v -0.500000 0.488556 0.320000
v -0.488556 -0.500000 -0.320000
v -0.500000 -0.488556 -0.320000
v 0.500000 -0.488556 0.488556
v 0.488556 -0.488556 0.500000
v 0.488556 -0.500000 0.488556
v 0.488556 0.488556 0.500000
v 0.500000 0.488556 0.488556
v 0.488556 0.500000 0.488556
v 0.488556 0.500000 -0.320000
v 0.500000 0.488556 -0.320000
v -0.500000 -0.320000 -0.488556
v -0.488556 -0.320000 -0.500000
v -0.488556 0.500000 0.488556
v -0.500000 0.488556 0.488556
v -0.488556 0.488556 0.500000
v -0.500000 0.320000 0.488556
v -0.488556 0.320000 0.500000
v -0.500000 0.411444 -0.411444
v -0.488556 0.400000 -0.400000
v -0.500000 0.411444 0.347628
v -0.488556 0.400000 0.320000
v 0.500000 0.411444 0.411444
v 0.488556 0.400000 0.400000
v 0.500000 0.411444 -0.347628
v 0.488556 0.400000 -0.320000
v 0.500000 -0.320000 0.488556
v 0.488556 -0.320000 0.500000
v -0.500000 -0.411444 0.411444
v -0.488556 -0.400000 0.400000
v -0.500000 -0.411444 -0.347628
v -0.488556 -0.400000 -0.320000
v 0.500000 -0.411444 -0.411444
v 0.488556 -0.400000 -0.400000
v 0.500000 -0.411444 0.347628
v 0.488556 -0.400000 0.320000
v 0.411444 0.500000 0.411444
v 0.400000 0.488556 0.400000
v -0.347628 0.500000 0.411444
v -0.320000 0.488556 0.400000
v 0.411444 -0.500000 -0.411444
v 0.400000 -0.488556 -0.400000
v -0.347628 -0.500000 -0.411444
v -0.320000 -0.488556 -0.400000
v 0.320000 0.488556 -0.500000
v 0.320000 0.500000 -0.488556
v 0.411444 0.411444 0.500000
v 0.400000 0.400000 0.488556
v 0.411444 -0.347628 0.500000
v 0.400000 -0.320000 0.488556
v 0.411444 -0.411444 -0.500000
v 0.400000 -0.400000 -0.488556
v 0.411444 0.347628 -0.500000
v 0.400000 0.320000 -0.488556
v -0.320000 0.488556 0.500000
v -0.320000 0.500000 0.488556
v -0.411444 0.500000 -0.411444
v -0.400000 0.488556 -0.400000
v 0.347628 0.500000 -0.411444
v 0.320000 0.488556 -0.400000
v -0.411444 -0.500000 0.411444
v -0.400000 -0.488556 0.400000
v 0.347628 -0.500000 0.411444
v 0.320000 -0.488556 0.400000
v -0.411444 -0.411444 0.500000
v -0.400000 -0.400000 0.488556
v -0.411444 0.347628 0.500000
v -0.400000 0.320000 0.488556
v -0.411444 0.411444 -0.500000
v -0.400000 0.400000 -0.488556
v -0.411444 -0.347628 -0.500000
v -0.400000 -0.320000 -0.488556
v 0.500000 -0.347628 0.411444
v 0.488556 -0.320000 0.400000
v 0.500000 0.347628 -0.411444
v 0.488556 0.320000 -0.400000
v -0.347628 -0.411444 -0.500000
v -0.320000 -0.400000 -0.488556
v 0.347628 0.411444 -0.500000
v 0.320000 0.400000 -0.488556
v -0.500000 -0.347628 -0.411444
v -0.488556 -0.320000 -0.400000
v -0.500000 0.347628 0.411444
v -0.488556 0.320000 0.400000
v 0.347628 -0.411444 0.500000
v 0.320000 -0.400000 0.488556
v -0.347628 0.411444 0.500000
v -0.320000 0.400000 0.488556
v 0.411444 0.500000 -0.347628
v 0.400000 0.488556 -0.320000
v -0.411444 0.500000 0.347628
v -0.400000 0.488556 0.320000
v -0.411444 -0.500000 -0.347628
v -0.400000 -0.488556 -0.320000
v 0.411444 -0.500000 0.347628
v 0.400000 -0.488556 0.320000
vt 0.687766 0.049586
vt 0.516980 0.215547
vt 0.518630 0.046287
vt 0.470031 0.215401
vt 0.299752 0.048752
vt 0.468980 0.046176
vt 0.061492 0.237294
vt 0.231636 0.070627
vt 0.230626 0.239916
vt 0.040986 0.046074
vt 0.210424 0.048936
vt 0.040282 0.215606
vt 0.462048 0.762764
vt 0.300991 0.937965
vt 0.292689 0.768658
vt 0.492737 0.952653
vt 0.323344 0.958498
vt 0.484382 0.783338
vt 0.707491 0.240901
vt 0.538071 0.237345
vt 0.708889 0.071363
vt 0.480765 0.474110
vt 0.311386 0.480005
vt 0.472575 0.304738
vt 0.450213 0.284177
vt 0.289033 0.459438
vt 0.280335 0.290199
vt 0.278648 0.070514
vt 0.448940 0.237125
vt 0.280206 0.239880
vt 0.482115 0.694032
vt 0.312574 0.527050
vt 0.482021 0.524529
vt 0.291326 0.548741
vt 0.460866 0.715722
vt 0.291423 0.718245
vt 0.505449 0.496803
vt 0.505544 0.500629
vt 0.309344 0.505527
vt 0.309247 0.501690
vt 0.730849 0.264929
vt 0.493907 0.300876
vt 0.534683 0.258896
vt 0.730431 0.068685
vt 0.503646 0.696864
vt 0.269414 0.506512
vt 0.269322 0.502728
vt 0.504028 0.736269
vt 0.504120 0.740054
vt 0.464190 0.741080
vt 0.464094 0.737244
vt 0.730844 0.028888
vt 0.691036 0.028030
vt 0.505718 0.779430
vt 0.267996 0.745972
vt 0.267901 0.742146
vt 0.253497 0.028530
vt 0.256634 0.028571
vt 0.257047 0.067877
vt 0.253207 0.067898
vt 0.281430 0.981672
vt 0.213702 0.027378
vt 0.279647 0.941897
vt 0.321215 0.980126
vt 0.296485 0.027153
vt 0.017530 0.022142
vt 0.018750 0.218371
vt 0.269795 0.545910
vt 0.018499 0.258168
vt 0.495350 0.022334
vt 0.517443 0.975352
vt 0.492340 0.022314
vt 0.495437 0.218152
vt 0.491604 0.218148
vt 0.494674 0.257548
vt 0.491547 0.257474
vt 0.058309 0.258863
vt 0.267701 0.463385
vt 0.255507 0.267542
vt 0.256994 0.263793
vt 0.452224 0.258703
vt 0.452333 0.262541
vt 0.253988 0.263783
vt 0.493041 0.261198
vt 0.513473 0.040988
vt 0.516901 0.044519
vt 0.516624 0.217664
vt 0.513697 0.225003
vt 0.697306 0.046547
vt 0.689883 0.049259
vt 0.235803 0.245195
vt 0.232362 0.241677
vt 0.231984 0.068510
vt 0.234883 0.061158
vt 0.051965 0.240372
vt 0.059377 0.237630
vt 0.712662 0.246214
vt 0.709224 0.242673
vt 0.709242 0.069243
vt 0.712163 0.061897
vt 0.528520 0.240374
vt 0.535951 0.237669
vt 0.035793 0.040783
vt 0.039246 0.044309
vt 0.039938 0.217727
vt 0.037047 0.225085
vt 0.219962 0.045869
vt 0.212543 0.048604
vt 0.275071 0.245182
vt 0.278492 0.241658
vt 0.451062 0.237427
vt 0.458461 0.240166
vt 0.275348 0.061050
vt 0.278263 0.068407
vt 0.286226 0.723538
vt 0.289690 0.720018
vt 0.462993 0.716026
vt 0.470398 0.718777
vt 0.288094 0.539259
vt 0.290957 0.546628
vt 0.274842 0.285193
vt 0.278495 0.288531
vt 0.288806 0.461576
vt 0.286318 0.469072
vt 0.459594 0.280618
vt 0.452315 0.283736
vt 0.287223 0.763644
vt 0.290858 0.766987
vt 0.300759 0.940101
vt 0.298263 0.947598
vt 0.471412 0.759208
vt 0.464148 0.762323
vt 0.474145 0.040886
vt 0.470703 0.044403
vt 0.297628 0.048449
vt 0.290217 0.045705
vt 0.473313 0.224864
vt 0.470412 0.217509
vt 0.487218 0.519236
vt 0.483754 0.522756
vt 0.310447 0.526746
vt 0.303042 0.523994
vt 0.485347 0.703514
vt 0.482484 0.696145
vt 0.486229 0.479126
vt 0.482595 0.475782
vt 0.472807 0.302602
vt 0.475309 0.295102
vt 0.302020 0.483562
vt 0.309287 0.480447
vt 0.498206 0.957669
vt 0.494569 0.954325
vt 0.484613 0.781202
vt 0.487108 0.773705
vt 0.313979 0.962051
vt 0.321245 0.958939
vt 0.482758 0.715874
vt 0.277899 0.048705
vt 0.516170 0.237371
vt 0.301490 0.959860
vt 0.232298 0.048817
vt 0.289532 0.481286
vt 0.483902 0.761489
vt 0.470688 0.237197
vt 0.039631 0.237506
vt 0.290683 0.526900
vt 0.472226 0.282823
vt 0.709628 0.049464
vt 0.534559 0.262735
vt 0.058223 0.262693
vt 0.018246 0.261933
vt 0.296384 0.023313
vt 0.493851 0.018570
vt 0.691137 0.024200
vt 0.014723 0.258327
vt 0.014921 0.218385
vt 0.013716 0.022121
vt 0.017587 0.018328
vt 0.213809 0.023539
vt 0.255048 0.024867
vt 0.731113 0.025125
vt 0.734621 0.028745
vt 0.734261 0.068688
vt 0.734663 0.264966
vt 0.730776 0.268743
vn -1.000000 0.000000 0.000000
vn -1.000000 0.000000 0.000000
vn -1.000000 0.000000 0.000000
vn 0.000000 1.000000 0.000000
vn 0.000000 1.000000 0.000000
vn 0.000000 1.000000 0.000000
vn 1.000000 0.000000 0.000000
vn 1.000000 0.000000 0.000000
vn 1.000000 0.000000 0.000000
vn 1.000000 0.000000 0.000000
vn 1.000000 0.000000 0.000000
vn 1.000000 0.000000 0.000000
vn 0.000000 0.000000 -1.000000
vn 0.000000 0.000000 -1.000000
vn 0.000000 0.000000 -1.000000
vn 0.000000 0.000000 -1.000000
vn 0.000000 0.000000 -1.000000
vn 0.000000 0.000000 -1.000000
vn -1.000000 -0.000000 0.000000
vn -1.000000 -0.000000 0.000000
vn -1.000000 -0.000000 0.000000
vn 0.000000 0.000000 1.000000
vn 0.000000 0.000000 1.000000
vn 0.000000 0.000000 1.000000
vn 0.000000 0.000000 1.000000
vn 0.000000 0.000000 1.000000
vn 0.000000 0.000000 1.000000
vn 0.000000 1.000000 0.000000
vn 0.000000 1.000000 0.000000
vn 0.000000 1.000000 0.000000
vn 0.000000 -1.000000 0.000000
vn 0.000000 -1.000000 0.000000
vn 0.000000 -1.000000 0.000000
vn 0.000000 -1.000000 -0.000000
vn 0.000000 -1.000000 -0.000000
vn 0.000000 -1.000000 -0.000000
vn -0.116094 -0.116094 0.986430
vn -0.116094 -0.986430 0.116094
vn 0.000000 -0.992717 0.120468
vn 0.000000 -0.120468 0.992717
vn -0.986430 -0.116094 0.116094
vn -0.120468 0.000000 0.992717
vn -0.992717 0.000000 0.120468
vn -0.992717 -0.120468 0.000000
vn -0.120468 -0.992717 0.000000
vn 0.145932 -0.978472 0.145932
vn 0.145932 -0.145932 0.978472
vn -0.145932 -0.978472 -0.145932
vn -0.145932 -0.145932 -0.978472
vn 0.000000 -0.120468 -0.992717
vn 0.000000 -0.992717 -0.120468
vn -0.978472 -0.145932 -0.145932
vn -0.992717 0.000000 -0.120468
vn -0.120468 0.000000 -0.992717
vn 0.116094 -0.116094 -0.986430
vn 0.116094 -0.986430 -0.116094
vn 0.978472 0.145932 -0.145932
vn 0.145932 0.978472 -0.145932
vn 0.120468 0.992717 0.000000
vn 0.992717 0.120468 0.000000
vn 0.145932 0.145932 -0.978472
vn 0.992717 0.000000 -0.120468
vn 0.120468 0.000000 -0.992717
vn 0.000000 0.120468 -0.992717
vn 0.000000 0.992717 -0.120468
vn 0.986430 -0.116094 -0.116094
vn 0.992717 -0.120468 0.000000
vn 0.120468 -0.992717 0.000000
vn 0.978472 -0.145932 0.145932
vn -0.986430 0.116094 -0.116094
vn -0.116094 0.116094 -0.986430
vn -0.116094 0.986430 -0.116094
vn -0.992717 0.120468 0.000000
vn -0.120468 0.992717 0.000000
vn -0.978472 0.145932 0.145932
vn -0.145932 0.978472 0.145932
vn 0.992717 0.000000 0.120468
vn 0.120468 0.000000 0.992717
vn 0.116094 0.116094 0.986430
vn 0.116094 0.986430 0.116094
vn 0.000000 0.992717 0.120468
vn 0.000000 0.120468 0.992717
vn 0.986430 0.116094 0.116094
vn -0.145932 0.145932 0.978472
vn -0.999279 -0.026841 0.026841
vn -0.639611 -0.543552 0.543552
vn -0.835833 0.000000 -0.548984
vn -0.999849 -0.000000 -0.017396
vn -0.999849 0.017395 0.000000
vn -0.835834 0.548983 0.000000
vn 0.999279 -0.026841 -0.026841
vn 0.639610 -0.543553 -0.543553
vn 0.835833 -0.000001 0.548984
vn 0.999849 -0.000000 0.017396
vn 0.999849 0.017395 -0.000000
vn 0.835834 0.548983 -0.000000
vn -0.999279 0.026841 -0.026841
vn -0.639610 0.543553 -0.543553
vn -0.835833 0.000001 0.548984
vn -0.999849 0.000000 0.017396
vn -0.999849 -0.017395 -0.000000
vn -0.835834 -0.548983 -0.000000
vn 0.999279 0.026841 0.026841
vn 0.639611 0.543552 0.543552
vn 0.835833 -0.000000 -0.548984
vn 0.999849 0.000000 -0.017396
vn 0.999849 -0.017395 0.000000
vn 0.835834 -0.548983 0.000000
vn -0.026841 0.999279 -0.026841
vn -0.543553 0.639610 -0.543552
vn 0.548983 0.835833 -0.000000
vn 0.017396 0.999849 -0.000000
vn -0.000000 0.999849 0.017395
vn -0.000000 0.835834 0.548982
vn -0.026841 -0.999279 0.026841
vn -0.543552 -0.639613 0.543550
vn 0.548983 -0.835834 -0.000001
vn 0.017395 -0.999849 0.000000
vn -0.000000 -0.999849 -0.017395
vn 0.000000 -0.835834 -0.548983
vn -0.026841 -0.026841 0.999279
vn -0.543552 -0.543553 0.639610
vn -0.000000 0.548983 0.835833
vn -0.000000 0.017396 0.999849
vn 0.017395 -0.000000 0.999849
vn 0.548983 -0.000000 0.835834
vn -0.026841 0.026841 -0.999279
vn -0.543552 0.543553 -0.639610
vn -0.000000 -0.548983 -0.835833
vn -0.000000 -0.017396 -0.999849
vn 0.017395 0.000000 -0.999849
vn 0.548983 0.000000 -0.835834
vn 0.026841 0.999279 0.026841
vn 0.543552 0.639613 0.543550
vn -0.548983 0.835834 -0.000001
vn -0.017395 0.999849 0.000000
vn 0.000000 0.999849 -0.017395
vn -0.000000 0.835834 -0.548983
vn 0.026841 -0.999279 -0.026841
vn 0.543553 -0.639610 -0.543552
vn -0.548983 -0.835833 -0.000000
vn -0.017396 -0.999849 -0.000000
vn 0.000000 -0.999849 0.017395
vn 0.000000 -0.835834 0.548982
vn 0.026841 0.026841 0.999279
vn 0.543552 0.543553 0.639610
vn 0.000000 -0.548983 0.835833
vn -0.000000 -0.017396 0.999849
vn -0.017395 0.000000 0.999849
vn -0.548982 0.000000 0.835834
vn 0.026841 -0.026841 -0.999279
vn 0.543552 -0.543553 -0.639610
vn 0.000000 0.548983 -0.835833
vn 0.000000 0.017396 -0.999849
vn -0.017395 -0.000000 -0.999849
vn -0.548982 -0.000000 -0.835834
vn 0.000000 -1.000000 0.000000
vn 0.000000 1.000000 0.000000
vn -1.000000 0.000000 0.000000
vn 0.000000 0.000000 -1.000000
vn 1.000000 0.000000 0.000000
vn 0.000000 0.000000 1.000000
vn 0.000000 0.000000 -1.000000
vn 0.000000 1.000000 0.000000
vn 1.000000 0.000000 0.000000
vn 0.000000 -1.000000 0.000000
vn 0.000000 0.000000 1.000000
vn -1.000000 0.000000 0.000000
vn 0.000000 -0.000000 -1.000000
vn 0.000000 1.000000 0.000000
vn 0.000000 -0.707107 0.707107
vn -1.000000 0.000000 0.000000
vn 0.000000 0.000000 -1.000000
vn 0.707107 0.000000 0.707107
vn 0.000000 -0.000004 1.000000
vn 0.000000 1.000000 0.000000
vn 0.000000 -0.707108 -0.707106
vn 0.000000 -1.000000 0.000000
vn 0.000000 0.707107 0.707107
vn 0.000000 0.000000 -1.000000
vn -0.000000 -1.000000 0.000000
vn 1.000000 0.000000 0.000000
vn -0.707107 0.707107 0.000000
vn -1.000000 0.000000 0.000000
vn 0.707107 -0.707107 0.000000
vn 0.000000 1.000000 0.000000
vn 0.000000 -1.000000 0.000000
vn 0.000000 0.707108 -0.707106
vn 0.000000 0.000004 1.000000
vn -1.000000 -0.000000 0.000000
vn 0.707107 0.707107 0.000000
vn 0.000000 -1.000000 0.000000
vn -0.000000 1.000000 0.000000
vn 1.000000 0.000000 0.000000
vn -0.707107 -0.707107 0.000000
vn 1.000000 0.000000 0.000000
vn 0.000000 0.000000 1.000000
vn -0.707107 0.000000 -0.707107
vn -1.000000 0.000000 0.000000
vn 0.000000 0.000000 1.000000
vn 0.707107 0.000000 -0.707107
vn 1.000000 0.000000 0.000000
vn 0.000000 0.000000 -1.000000
vn -0.707107 0.000000 0.707107
s off
g pasted__pasted__pCube1 pasted__group group2
usemtl initialShadingGroup
f 13/1/1 14/2/2 15/3/3
f 16/4/4 17/5/5 18/6/6
f 20/7/7 19/8/8 21/9/9
f 23/10/10 22/11/11 24/12/12
f 26/13/13 25/14/14 27/15/15
f 29/16/16 28/17/17 30/18/18
f 32/19/19 31/20/20 33/21/21
f 35/22/22 34/23/23 36/24/24
f 38/25/25 37/26/26 39/27/27
f 41/28/28 40/29/29 42/30/30
f 44/31/31 43/32/32 45/33/33
f 47/34/34 46/35/35 48/36/36
s 1
f 49/37/37 51/38/38 52/39/39 53/40/40
f 50/41/41 49/185/37 90/169/42 89/43/43
f 51/184/38 50/41/41 75/44/44 74/183/45
f 53/40/40 52/39/39 78/46/46 77/47/47
f 54/48/48 56/49/49 57/50/50 58/51/51
f 55/52/52 54/182/48 74/183/45 75/44/44
f 56/181/49 55/52/52 84/53/53 85/174/54
f 58/51/51 57/50/50 64/55/55 66/56/56
f 59/57/57 61/58/58 82/59/59 83/60/60
f 60/180/61 59/57/57 62/62/62 63/179/63
f 61/58/58 60/180/61 117/172/64 118/65/65
f 63/179/63 62/62/62 65/66/66 64/178/55
f 66/177/56 65/66/66 67/67/67 68/176/68
f 68/176/68 67/67/67 76/69/69 78/175/46
f 69/70/70 71/173/71 85/174/54 84/53/53
f 70/72/72 69/70/70 73/73/73 72/74/74
f 71/173/71 70/72/72 118/65/65 117/172/64
f 72/74/74 73/73/73 87/75/75 86/76/76
f 77/171/47 76/69/69 99/77/77 100/170/78
f 79/79/79 81/80/80 128/81/81 127/82/82
f 80/83/83 79/79/79 100/170/78 99/77/77
f 81/80/80 80/83/83 83/60/60 82/59/59
f 86/76/76 88/84/84 127/82/82 128/81/81
f 88/84/84 87/75/75 89/43/43 90/169/42
f 91/85/85 92/86/86 94/87/87 93/88/88
f 92/86/86 91/85/85 153/89/89 154/90/90
f 93/88/88 94/87/87 154/90/90 153/89/89
f 95/91/91 96/92/92 98/93/93 97/94/94
f 96/92/92 95/91/91 145/95/95 146/96/96
f 97/94/94 98/93/93 146/96/96 145/95/95
f 101/97/97 102/98/98 104/99/99 103/100/100
f 102/98/98 101/97/97 155/101/101 156/102/102
f 103/100/100 104/99/99 156/102/102 155/101/101
f 105/103/103 106/104/104 108/105/105 107/106/106
f 106/104/104 105/103/103 147/107/107 148/108/108
f 107/106/106 108/105/105 148/108/108 147/107/107
f 109/109/109 110/110/110 112/111/111 111/112/112
f 110/110/110 109/109/109 161/113/113 162/114/114
f 111/112/112 112/111/111 162/114/114 161/113/113
f 113/115/115 114/116/116 116/117/117 115/118/118
f 114/116/116 113/115/115 167/119/119 168/120/120
f 115/118/118 116/117/117 168/120/120 167/119/119
f 119/121/121 120/122/122 122/123/123 121/124/124
f 120/122/122 119/121/121 159/125/125 160/126/126
f 121/124/124 122/123/123 160/126/126 159/125/125
f 123/127/127 124/128/128 126/129/129 125/130/130
f 124/128/128 123/127/127 149/131/131 150/132/132
f 125/130/130 126/129/129 150/132/132 149/131/131
f 129/133/133 130/134/134 132/135/135 131/136/136
f 130/134/134 129/133/133 163/137/137 164/138/138
f 131/136/136 132/135/135 164/138/138 163/137/137
f 133/139/139 134/140/140 136/141/141 135/142/142
f 134/140/140 133/139/139 165/143/143 166/144/144
f 135/142/142 136/141/141 166/144/144 165/143/143
f 137/145/145 138/146/146 140/147/147 139/148/148
f 138/146/146 137/145/145 157/149/149 158/150/150
f 139/148/148 140/147/147 158/150/150 157/149/149
f 141/151/151 142/152/152 144/153/153 143/154/154
f 142/152/152 141/151/151 151/155/155 152/156/156
f 143/154/154 144/153/153 152/156/156 151/155/155
f 137/145/145 49/37/37 53/40/40 157/149/149
f 133/139/139 51/38/38 74/45/45 165/143/143
f 75/44/44 50/41/41 101/97/97 103/100/100
f 165/143/143 9/157/157 115/118/118
f 67/67/67 65/66/66 105/103/103 107/106/106
f 131/136/136 3/158/158 61/58/58 118/65/65
f 123/127/127 64/55/55 57/50/50 149/131/131
f 66/56/56 68/68/68 167/119/119 113/115/115
f 93/88/88 8/159/159 87/75/75 73/73/73
f 63/63/63 125/130/130 1/160/160 60/61/61
f 97/94/94 2/161/161 59/57/57 83/60/60
f 77/47/47 4/162/162 157/149/149 53/40/40
f 91/85/85 93/88/88 73/73/73 69/70/70
f 101/97/97 50/41/41 89/43/43 155/101/101
f 141/151/151 143/154/154 85/54/54 71/71/71
f 80/83/83 99/77/77 145/95/95 95/91/91
f 119/121/121 121/124/124 100/78/78 79/79/79
f 84/53/53 153/89/89 91/85/85 69/70/70
f 109/109/109 81/80/80 82/59/59 161/113/113
f 83/60/60 80/83/83 95/91/91 97/94/94
f 105/103/103 65/66/66 62/62/62 147/107/107
f 63/63/63 64/55/55 123/127/127 125/130/130
f 141/151/151 71/71/71 117/64/64 151/155/155
f 118/65/65 70/72/72 129/133/133 131/136/136
f 70/72/72 72/74/74 163/137/137 129/133/133
f 90/42/42 49/37/37 137/145/145 139/148/148
f 79/79/79 127/82/82 159/125/125 119/121/121
f 111/112/112 128/81/81 81/80/80 109/109/109
f 66/56/56 113/115/115 115/118/118 58/51/51
f 52/39/39 51/38/38 133/139/139 135/142/142
f 151/155/155 1/160/160 125/130/130
f 117/64/64 60/61/61 1/160/160 151/155/155
f 62/62/62 59/57/57 2/161/161 147/107/107
f 147/107/107 2/161/161 97/94/94
f 147/107/107 97/94/94 145/95/95 107/106/106
f 143/154/154 11/163/163 56/49/49 85/54/54
f 86/76/76 7/164/164 163/137/137 72/74/74
f 161/113/113 82/59/59 61/58/58 3/158/158
f 161/113/113 3/158/158 131/136/136
f 107/106/106 5/165/165 76/69/69 67/67/67
f 107/106/106 145/95/95 5/165/165
f 159/125/125 139/148/148 157/149/149 121/124/124
f 121/124/124 4/162/162 77/47/47 100/78/78
f 121/124/124 157/149/149 4/162/162
f 5/165/165 145/95/95 99/77/77 76/69/69
f 135/142/142 6/166/166 78/46/46 52/39/39
f 135/142/142 167/119/119 6/166/166
f 6/166/166 167/119/119 68/68/68 78/46/46
f 88/84/84 90/42/42 139/148/148 12/167/167
f 161/113/113 131/136/136 163/137/137 111/112/112
f 111/112/112 7/164/164 86/76/76 128/81/81
f 111/112/112 163/137/137 7/164/164
f 103/100/100 10/168/168 55/52/52 75/44/44
f 89/43/43 87/75/75 8/159/159 155/101/101
f 155/101/101 8/159/159 93/88/88
f 155/101/101 93/88/88 153/89/89 103/100/100
f 55/52/52 10/168/168 153/89/89 84/53/53
f 115/118/118 9/157/157 54/48/48 58/51/51
f 165/143/143 115/118/118 167/119/119 135/142/142
f 165/143/143 74/45/45 54/48/48 9/157/157
f 103/100/100 153/89/89 10/168/168
f 151/155/155 125/130/130 149/131/131 143/154/154
f 56/49/49 11/163/163 149/131/131 57/50/50
f 143/154/154 149/131/131 11/163/163
f 159/125/125 12/167/167 139/148/148
f 127/82/82 88/84/84 12/167/167 159/125/125
f 154/90/90 94/87/87 14/2/169 13/1/170
f 94/87/87 92/86/86 15/3/171 14/2/169
f 92/86/86 154/90/90 13/1/170 15/3/171
f 164/138/138 132/135/135 17/5/172 16/4/173
f 132/135/135 130/134/134 18/6/174 17/5/172
f 130/134/134 164/138/138 16/4/173 18/6/174
f 146/96/96 98/93/93 19/8/175 20/7/176
f 98/93/93 96/92/92 21/9/177 19/8/175
f 96/92/92 146/96/96 20/7/176 21/9/177
f 106/104/104 148/108/108 22/11/178 23/10/179
f 148/108/108 108/105/105 24/12/180 22/11/178
f 108/105/105 106/104/104 23/10/179 24/12/180
f 150/132/132 126/129/129 25/14/181 26/13/182
f 126/129/129 124/128/128 27/15/183 25/14/181
f 124/128/128 150/132/132 26/13/182 27/15/183
f 142/152/152 152/156/156 28/17/184 29/16/185
f 152/156/156 144/153/153 30/18/186 28/17/184
f 144/153/153 142/152/152 29/16/185 30/18/186
f 102/98/98 156/102/102 31/20/187 32/19/188
f 156/102/102 104/99/99 33/21/189 31/20/187
f 104/99/99 102/98/98 32/19/188 33/21/189
f 138/146/146 158/150/150 34/23/190 35/22/191
f 158/150/150 140/147/147 36/24/192 34/23/190
f 140/147/147 138/146/146 35/22/191 36/24/192
f 160/126/126 122/123/123 37/26/193 38/25/194
f 122/123/123 120/122/122 39/27/195 37/26/193
f 120/122/122 160/126/126 38/25/194 39/27/195
f 162/114/114 112/111/111 40/29/196 41/28/197
f 112/111/111 110/110/110 42/30/198 40/29/196
f 110/110/110 162/114/114 41/28/197 42/30/198
f 166/144/144 136/141/141 43/32/199 44/31/200
f 136/141/141 134/140/140 45/33/201 43/32/199
f 134/140/140 166/144/144 44/31/200 45/33/201
f 168/120/120 116/117/117 46/35/202 47/34/203
f 116/117/117 114/116/116 48/36/204 46/35/202
f 114/116/116 168/120/120 47/34/203 48/36/204
f 49/185/37 50/41/41 51/184/38
f 54/182/48 55/52/52 56/181/49
f 59/57/57 60/180/61 61/58/58
f 64/178/55 65/66/66 66/177/56
f 69/70/70 70/72/72 71/173/71
f 76/69/69 77/171/47 78/175/46
f 79/79/79 80/83/83 81/80/80
f 86/76/76 87/75/75 88/84/84
