# This file uses centimeters as units for non-parametric coordinates.

mtllib 0_5x1.mtl
g default
v -0.500000 -0.250000 0.000000
v 0.500000 -0.250000 0.000000
v -0.500000 0.250000 0.000000
v 0.500000 0.250000 0.000000
vt 0.339030 0.415715
vt 0.660970 0.415715
vt 0.660970 0.576684
vt 0.339030 0.576684
vn 0.000000 0.000000 1.000000
vn 0.000000 0.000000 1.000000
vn 0.000000 0.000000 1.000000
vn 0.000000 0.000000 1.000000
s off
g W_0_5x1 Basic_Walls
usemtl initialShadingGroup
f 1/1/1 2/2/2 4/3/3 3/4/4
