# This file uses centimeters as units for non-parametric coordinates.

mtllib 2x0_5.mtl
g default
v 0.250000 -1.000000 0.000000
v 0.250000 1.000000 0.000000
v -0.250000 -1.000000 0.000000
v -0.250000 1.000000 0.000000
vt 0.580485 0.174261
vt 0.580485 0.818138
vt 0.419516 0.818138
vt 0.419515 0.174261
vn 0.000000 0.000000 1.000000
vn 0.000000 0.000000 1.000000
vn 0.000000 0.000000 1.000000
vn 0.000000 0.000000 1.000000
s off
g W_2x0_5 Basic_Walls
usemtl initialShadingGroup
f 1/1/1 2/2/2 4/3/3 3/4/4
