# This file uses centimeters as units for non-parametric coordinates.

mtllib P_Doorframe_Pt1.mtl
g default
v 0.591599 0.000000 0.118349
v 0.000000 2.235801 0.118349
v 0.251453 2.197456 0.118349
v 0.440491 2.084945 0.118349
v 0.563138 1.922785 0.118349
v 0.591599 1.739027 0.118349
v 0.000000 2.235801 -0.000000
v 0.251453 2.197456 0.000000
v 0.440491 2.084945 0.000000
v 0.563138 1.922785 0.000000
v 0.591599 1.739027 0.000000
v 0.591599 0.000000 0.000000
v 0.522235 2.180171 0.118349
v 0.283002 2.310791 0.118349
v 0.000000 2.361516 0.118349
v 0.681454 1.969403 0.118349
v 0.720179 1.738870 0.118349
v 0.720179 0.000000 0.118349
v 0.681454 1.969403 0.066154
v 0.522235 2.180171 0.066154
v 0.283002 2.310791 0.066154
v 0.000000 2.361516 0.066154
v 0.720179 1.738870 0.066154
v 0.720179 0.000000 0.066154
v -0.591599 0.000000 0.118349
v -0.251453 2.197456 0.118349
v -0.440491 2.084945 0.118349
v -0.563138 1.922785 0.118349
v -0.591599 1.739027 0.118349
v -0.251453 2.197456 0.000000
v -0.440491 2.084945 0.000000
v -0.563138 1.922785 0.000000
v -0.591599 1.739027 0.000000
v -0.591599 0.000000 0.000000
v -0.522235 2.180171 0.118349
v -0.283002 2.310791 0.118349
v -0.681454 1.969403 0.118349
v -0.720179 1.738870 0.118349
v -0.720179 0.000000 0.118349
v -0.681454 1.969403 0.066154
v -0.522235 2.180171 0.066154
v -0.283002 2.310791 0.066154
v -0.720179 1.738870 0.066154
v -0.720179 0.000000 0.066154
v 0.591599 0.000000 -0.118349
v 0.000000 2.235801 -0.118349
v 0.251453 2.197456 -0.118349
v 0.440491 2.084945 -0.118349
v 0.563138 1.922785 -0.118349
v 0.591599 1.739027 -0.118349
v 0.522235 2.180171 -0.118349
v 0.283002 2.310791 -0.118349
v 0.000000 2.361516 -0.118349
v 0.681454 1.969403 -0.118349
v 0.720179 1.738870 -0.118349
v 0.720179 0.000000 -0.118349
v 0.681454 1.969403 -0.066154
v 0.522235 2.180171 -0.066154
v 0.283002 2.310791 -0.066154
v 0.000000 2.361516 -0.066154
v 0.720179 1.738870 -0.066154
v 0.720179 0.000000 -0.066154
v -0.591599 0.000000 -0.118349
v -0.251453 2.197456 -0.118349
v -0.440491 2.084945 -0.118349
v -0.563138 1.922785 -0.118349
v -0.591599 1.739027 -0.118349
v -0.522235 2.180171 -0.118349
v -0.283002 2.310791 -0.118349
v -0.681454 1.969403 -0.118349
v -0.720179 1.738870 -0.118349
v -0.720179 0.000000 -0.118349
v -0.681454 1.969403 -0.066154
v -0.522235 2.180171 -0.066154
v -0.283002 2.310791 -0.066154
v -0.720179 1.738870 -0.066154
v -0.720179 0.000000 -0.066154
vt 0.285422 0.861488
vt 0.981501 0.795506
vt 0.356333 0.795017
vt 0.355989 0.752570
vt 0.981524 0.753080
vt 0.284814 0.795825
vt 0.284900 0.752512
vt 0.206668 0.795470
vt 0.207082 0.752448
vt 0.122990 0.795588
vt 0.124364 0.752381
vt 0.969588 0.365741
vt 0.968805 0.325844
vt 0.204881 0.837428
vt 0.118287 0.837847
vt 0.980868 0.409281
vt 0.117622 0.856666
vt 0.285945 0.842614
vt 0.358428 0.840779
vt 0.981462 0.841676
vt 0.358398 0.859522
vt 0.981437 0.860419
vt 0.714239 0.434417
vt 0.796969 0.429294
vt 0.018320 0.366764
vt 0.018398 0.324339
vt 0.643933 0.325329
vt 0.643487 0.367776
vt 0.715021 0.325442
vt 0.715003 0.368755
vt 0.792840 0.325565
vt 0.793151 0.368588
vt 0.875558 0.325696
vt 0.876828 0.368907
vt 0.794837 0.410550
vt 0.881429 0.411177
vt 0.882050 0.429997
vt 0.713761 0.415541
vt 0.641283 0.413533
vt 0.018248 0.412935
vt 0.641267 0.432276
vt 0.285600 0.643537
vt 0.202873 0.648723
vt 0.981570 0.710654
vt 0.356403 0.710123
vt 0.284885 0.709199
vt 0.206738 0.709426
vt 0.123060 0.709171
vt 0.969714 0.285949
vt 0.205020 0.667465
vt 0.118427 0.666904
vt 0.981132 0.242445
vt 0.117792 0.648085
vt 0.981772 0.223692
vt 0.286092 0.662411
vt 0.358572 0.664364
vt 0.981606 0.664484
vt 0.358573 0.645621
vt 0.714234 0.216682
vt 0.794244 0.221929
vt 0.018454 0.281913
vt 0.643621 0.282882
vt 0.715140 0.282129
vt 0.793287 0.282544
vt 0.876965 0.282490
vt 0.795106 0.240587
vt 0.881700 0.240234
vt 0.881885 0.221512
vt 0.714046 0.235339
vt 0.641562 0.237118
vt 0.018529 0.235743
vt 0.640051 0.218535
vt 0.018568 0.217000
vt 0.981613 0.645741
vt 0.018228 0.431677
vt 0.018228 0.854467
vt 0.202704 0.856166
vt 0.641606 0.218375
vt 0.882380 0.221416
vt 0.714584 0.216466
vt 0.797298 0.221850
vt 0.360127 0.645785
vt 0.018394 0.650122
vt 0.118287 0.648182
vt 0.205927 0.648809
vt 0.285949 0.643754
vt 0.639713 0.432110
vt 0.881555 0.429900
vt 0.793915 0.429205
vt 0.713889 0.434199
vt 0.359953 0.859361
vt 0.981449 0.428037
vt 0.118116 0.856570
vt 0.205757 0.856085
vt 0.285771 0.861272
vt 0.018990 0.668877
vt 0.030303 0.712408
vt 0.031117 0.752305
vt 0.018854 0.835713
vt 0.030238 0.792200
vn -1.000000 0.000000 0.000000
vn -0.999891 -0.014800 0.000000
vn -0.999891 -0.014800 0.000000
vn -1.000000 0.000000 0.000000
vn -0.916381 -0.400306 0.000000
vn -0.916381 -0.400306 0.000000
vn -0.661154 -0.750251 0.000000
vn -0.661154 -0.750251 0.000000
vn -0.324000 -0.946057 0.000000
vn -0.324000 -0.946057 0.000000
vn 0.000000 -1.000000 0.000000
vn 0.000000 -1.000000 0.000000
vn 0.000000 0.000001 1.000000
vn 0.000000 0.000001 1.000000
vn 0.000000 0.000001 1.000000
vn 0.000000 0.000001 1.000000
vn 0.000001 0.000001 1.000000
vn 0.000001 0.000001 1.000000
vn 0.000001 0.000001 1.000000
vn 0.000001 0.000001 1.000000
vn 0.000001 0.000000 1.000000
vn 0.000001 0.000000 1.000000
vn 0.000001 0.000000 1.000000
vn 0.000001 0.000000 1.000000
vn 0.000003 0.000000 1.000000
vn 0.000003 0.000000 1.000000
vn 0.000003 0.000000 1.000000
vn 0.000003 0.000000 1.000000
vn 0.000001 0.000000 1.000000
vn 0.000001 0.000000 1.000000
vn 0.000001 0.000000 1.000000
vn 0.000001 0.000000 1.000000
vn 0.650635 0.759390 0.000000
vn 0.912417 0.409261 0.000000
vn 0.912417 0.409261 0.000000
vn 0.650635 0.759390 0.000000
vn 0.000000 1.000000 0.000000
vn 0.328032 0.944667 0.000000
vn 0.328032 0.944667 0.000000
vn 0.000000 1.000000 0.000000
vn 0.999807 0.019660 0.000001
vn 0.999807 0.019660 0.000001
vn 1.000000 -0.000000 0.000001
vn 1.000000 -0.000000 0.000001
vn 1.000000 0.000000 0.000000
vn 1.000000 0.000000 0.000000
vn 0.999891 -0.014800 0.000000
vn 0.999891 -0.014800 0.000000
vn 0.916381 -0.400306 0.000000
vn 0.916381 -0.400306 0.000000
vn 0.661154 -0.750251 0.000000
vn 0.661154 -0.750251 0.000000
vn 0.324000 -0.946057 0.000000
vn 0.324000 -0.946057 0.000000
vn -0.000000 0.000001 1.000000
vn -0.000000 0.000001 1.000000
vn -0.000000 0.000001 1.000000
vn -0.000000 0.000001 1.000000
vn -0.000001 0.000001 1.000000
vn -0.000001 0.000001 1.000000
vn -0.000001 0.000001 1.000000
vn -0.000001 0.000001 1.000000
vn -0.000001 0.000000 1.000000
vn -0.000001 0.000000 1.000000
vn -0.000001 0.000000 1.000000
vn -0.000001 0.000000 1.000000
vn -0.000003 0.000000 1.000000
vn -0.000003 0.000000 1.000000
vn -0.000003 0.000000 1.000000
vn -0.000003 0.000000 1.000000
vn -0.000001 0.000000 1.000000
vn -0.000001 0.000000 1.000000
vn -0.000001 0.000000 1.000000
vn -0.000001 0.000000 1.000000
vn -0.650635 0.759390 0.000000
vn -0.650635 0.759390 0.000000
vn -0.912417 0.409261 0.000000
vn -0.912417 0.409261 0.000000
vn -0.328032 0.944667 0.000000
vn -0.328032 0.944667 0.000000
vn -0.999807 0.019659 0.000001
vn -0.999807 0.019659 0.000001
vn -1.000000 -0.000000 0.000001
vn -1.000000 -0.000000 0.000001
vn -1.000000 0.000000 0.000000
vn -1.000000 0.000000 0.000000
vn -0.999891 -0.014800 0.000000
vn -0.999891 -0.014800 0.000000
vn -0.916381 -0.400306 0.000000
vn -0.916381 -0.400306 0.000000
vn -0.661154 -0.750251 0.000000
vn -0.661154 -0.750251 0.000000
vn -0.324000 -0.946057 0.000000
vn -0.324000 -0.946057 0.000000
vn 0.000000 -1.000000 0.000000
vn 0.000000 -1.000000 0.000000
vn 0.000000 0.000001 -1.000000
vn 0.000000 0.000001 -1.000000
vn 0.000000 0.000001 -1.000000
vn 0.000000 0.000001 -1.000000
vn 0.000001 0.000001 -1.000000
vn 0.000001 0.000001 -1.000000
vn 0.000001 0.000001 -1.000000
vn 0.000001 0.000001 -1.000000
vn 0.000001 0.000000 -1.000000
vn 0.000001 0.000000 -1.000000
vn 0.000001 0.000000 -1.000000
vn 0.000001 0.000000 -1.000000
vn 0.000003 0.000000 -1.000000
vn 0.000003 0.000000 -1.000000
vn 0.000003 0.000000 -1.000000
vn 0.000003 0.000000 -1.000000
vn 0.000001 0.000000 -1.000000
vn 0.000001 0.000000 -1.000000
vn 0.000001 0.000000 -1.000000
vn 0.000001 0.000000 -1.000000
vn 0.650635 0.759390 0.000000
vn 0.650635 0.759390 0.000000
vn 0.912417 0.409261 -0.000000
vn 0.912417 0.409261 -0.000000
vn 0.000000 1.000000 0.000000
vn -0.000000 1.000000 0.000000
vn 0.328032 0.944667 0.000000
vn 0.328032 0.944667 0.000000
vn 0.999807 0.019659 -0.000001
vn 0.999807 0.019660 -0.000001
vn 1.000000 -0.000000 -0.000001
vn 1.000000 -0.000000 -0.000001
vn 1.000000 0.000000 0.000000
vn 0.999891 -0.014800 0.000000
vn 0.999891 -0.014800 0.000000
vn 1.000000 0.000000 0.000000
vn 0.916381 -0.400306 0.000000
vn 0.916381 -0.400306 0.000000
vn 0.661154 -0.750251 0.000000
vn 0.661154 -0.750251 0.000000
vn 0.324000 -0.946057 0.000000
vn 0.324000 -0.946057 0.000000
vn -0.000000 0.000001 -1.000000
vn -0.000000 0.000001 -1.000000
vn -0.000000 0.000001 -1.000000
vn -0.000000 0.000001 -1.000000
vn -0.000001 0.000001 -1.000000
vn -0.000001 0.000001 -1.000000
vn -0.000001 0.000001 -1.000000
vn -0.000001 0.000001 -1.000000
vn -0.000001 0.000000 -1.000000
vn -0.000001 0.000000 -1.000000
vn -0.000001 0.000000 -1.000000
vn -0.000001 0.000000 -1.000000
vn -0.000003 0.000000 -1.000000
vn -0.000003 0.000000 -1.000000
vn -0.000003 0.000000 -1.000000
vn -0.000003 0.000000 -1.000000
vn -0.000001 0.000000 -1.000000
vn -0.000001 0.000000 -1.000000
vn -0.000001 0.000000 -1.000000
vn -0.000001 0.000000 -1.000000
vn -0.650635 0.759390 0.000000
vn -0.912417 0.409261 -0.000000
vn -0.912417 0.409261 -0.000000
vn -0.650635 0.759390 0.000000
vn -0.328032 0.944667 0.000000
vn -0.328032 0.944667 0.000000
vn -0.999807 0.019659 -0.000001
vn -0.999807 0.019659 -0.000001
vn -1.000000 -0.000000 -0.000001
vn -1.000000 -0.000000 -0.000001
s 1
g P_DoorPt1
usemtl initialShadingGroup
f 1/2/1 6/3/2 11/4/3 12/5/4
f 6/3/2 5/6/5 10/7/6 11/4/3
f 5/6/5 4/8/7 9/9/8 10/7/6
f 4/8/7 3/10/9 8/11/10 9/9/8
f 3/10/9 2/100/11 7/98/12 8/11/10
s off
f 13/14/13 14/15/14 3/10/15 4/8/16
f 14/15/17 15/99/18 2/100/19 3/10/20
f 5/6/21 16/18/22 13/14/23 4/8/24
f 6/3/25 17/19/26 16/18/27 5/6/28
f 6/3/29 1/2/30 18/20/31 17/19/32
s 2
f 13/14/33 16/18/34 19/95/35 20/77/36
f 15/99/37 14/15/38 21/93/39 22/76/40
f 14/15/38 13/14/33 20/94/36 21/17/39
f 16/18/34 17/19/41 23/91/42 19/1/35
f 17/19/41 18/20/43 24/22/44 23/21/42
s 1
f 25/25/45 34/26/46 33/27/47 29/28/48
f 29/28/48 33/27/47 32/29/49 28/30/50
f 28/30/50 32/29/49 31/31/51 27/32/52
f 27/32/52 31/31/51 30/33/53 26/34/54
f 26/34/54 30/33/53 7/13/12 2/12/11
s off
f 35/35/55 27/32/56 26/34/57 36/36/58
f 36/36/59 26/34/60 2/12/61 15/16/62
f 28/30/63 27/32/64 35/35/65 37/38/66
f 29/28/67 28/30/68 37/38/69 38/39/70
f 29/28/71 38/39/72 39/40/73 25/25/74
s 2
f 35/35/75 41/24/76 40/90/77 37/38/78
f 15/16/37 22/92/40 42/88/79 36/36/80
f 36/36/80 42/37/79 41/89/76 35/35/75
f 37/38/78 40/23/77 43/87/81 38/39/82
f 38/39/82 43/41/81 44/75/83 39/40/84
s 5
f 45/44/85 12/5/86 11/4/87 50/45/88
f 50/45/88 11/4/87 10/7/89 49/46/90
f 49/46/90 10/7/89 9/9/91 48/47/92
f 48/47/92 9/9/91 8/11/93 47/48/94
f 47/48/94 8/11/93 7/98/95 46/97/96
s off
f 51/50/97 48/47/98 47/48/99 52/51/100
f 52/51/101 47/48/102 46/97/103 53/96/104
f 49/46/105 48/47/106 51/50/107 54/55/108
f 50/45/109 49/46/110 54/55/111 55/56/112
f 50/45/113 55/56/114 56/57/115 45/44/116
s 6
f 51/50/117 58/43/118 57/86/119 54/55/120
f 53/96/121 60/83/122 59/84/123 52/51/124
f 52/51/124 59/53/123 58/85/118 51/50/117
f 54/55/120 57/42/119 61/82/125 55/56/126
f 55/56/126 61/58/125 62/74/127 56/57/128
s 5
f 63/61/129 67/62/130 33/27/131 34/26/132
f 67/62/130 66/63/133 32/29/134 33/27/131
f 66/63/133 65/64/135 31/31/136 32/29/134
f 65/64/135 64/65/137 30/33/138 31/31/136
f 64/65/137 46/49/96 7/13/95 30/33/138
s off
f 68/66/139 69/67/140 64/65/141 65/64/142
f 69/67/143 53/52/144 46/49/145 64/65/146
f 66/63/147 70/69/148 68/66/149 65/64/150
f 67/62/151 71/70/152 70/69/153 66/63/154
f 67/62/155 63/61/156 72/71/157 71/70/158
s 6
f 68/66/159 70/69/160 73/59/161 74/81/162
f 53/52/121 69/67/163 75/68/164 60/54/122
f 69/67/163 68/66/159 74/60/162 75/79/164
f 70/69/160 71/70/165 76/72/166 73/80/161
f 71/70/165 72/71/167 77/73/168 76/78/166
