# This file uses centimeters as units for non-parametric coordinates.

mtllib P_W.mtl
g default
v -7.038283 1.000251 0.000000
v -6.038283 1.000251 0.000000
v -7.038283 1.500251 0.000000
v -6.038283 1.500251 0.000000
vt 0.339030 0.415715
vt 0.660970 0.415715
vt 0.660970 0.576684
vt 0.339030 0.576684
vn 0.000000 0.000000 1.000000
vn 0.000000 0.000000 1.000000
vn 0.000000 0.000000 1.000000
vn 0.000000 0.000000 1.000000
s off
g W_0_5x1 Basic_Walls
usemtl initialShadingGroup
f 1/1/1 2/2/2 4/3/3 3/4/4
g default
v -7.069848 1.741960 0.000000
v -6.569848 1.741960 0.000000
v -7.069848 2.241960 0.000000
v -6.569848 2.241960 0.000000
vt 0.419515 0.415715
vt 0.580485 0.415715
vt 0.580485 0.576684
vt 0.419515 0.576684
vn 0.000000 0.000000 1.000000
vn 0.000000 0.000000 1.000000
vn 0.000000 0.000000 1.000000
vn 0.000000 0.000000 1.000000
s off
g Basic_Walls W_0_5x0_5
usemtl initialShadingGroup
f 5/5/5 6/6/6 8/7/7 7/8/8
g default
v 4.731499 -0.530377 0.000000
v 4.731499 1.469623 0.000000
v 1.731499 -0.530377 0.000000
v 1.731499 1.469623 0.000000
vt 0.982909 0.174261
vt 0.982909 0.818139
vt 0.017092 0.818139
vt 0.017092 0.174261
vn 0.000000 0.000000 1.000000
vn 0.000000 0.000000 1.000000
vn 0.000000 0.000000 1.000000
vn 0.000000 0.000000 1.000000
s off
g Basic_Walls W_2x3
usemtl initialShadingGroup
f 9/9/9 10/10/10 12/11/11 11/12/12
g default
v -6.996786 0.358888 0.000000
v -3.996786 0.358888 0.000000
v -6.996786 0.858888 0.000000
v -3.996786 0.858888 0.000000
vt 0.017091 0.415715
vt 0.982909 0.415715
vt 0.982909 0.576685
vt 0.017091 0.576685
vn 0.000000 0.000000 1.000000
vn 0.000000 0.000000 1.000000
vn 0.000000 0.000000 1.000000
vn 0.000000 0.000000 1.000000
s off
g Basic_Walls W_0_5x3
usemtl initialShadingGroup
f 13/13/13 14/14/14 16/15/15 15/16/16
g default
v -5.107996 1.741960 0.000000
v -5.107996 3.741960 0.000000
v -5.607996 1.741960 0.000000
v -5.607996 3.741960 0.000000
vt 0.580485 0.174261
vt 0.580485 0.818138
vt 0.419516 0.818138
vt 0.419515 0.174261
vn 0.000000 0.000000 1.000000
vn 0.000000 0.000000 1.000000
vn 0.000000 0.000000 1.000000
vn 0.000000 0.000000 1.000000
s off
g Basic_Walls W_2x0_5
usemtl initialShadingGroup
f 17/17/17 18/18/18 20/19/19 19/20/20
g default
v -1.859355 1.741960 0.000000
v 0.140645 1.741960 0.000000
v -1.859355 3.741960 0.000000
v 0.140645 3.741960 0.000000
vt 0.178061 0.174261
vt 0.821939 0.174261
vt 0.821939 0.818139
vt 0.178061 0.818139
vn 0.000000 0.000000 1.000000
vn 0.000000 0.000000 1.000000
vn 0.000000 0.000000 1.000000
vn 0.000000 0.000000 1.000000
s off
g Basic_Walls W_2x2
usemtl initialShadingGroup
f 21/21/21 22/22/22 24/23/23 23/24/24
g default
v -2.111770 1.741960 0.000000
v -2.111770 3.741960 0.000000
v -3.111771 1.741960 0.000000
v -3.111771 3.741960 0.000000
vt 0.660970 0.174261
vt 0.660970 0.818138
vt 0.339031 0.818138
vt 0.339031 0.174261
vn 0.000000 0.000000 1.000000
vn 0.000000 0.000000 1.000000
vn 0.000000 0.000000 1.000000
vn 0.000000 0.000000 1.000000
s off
g Basic_Walls W_2x1
usemtl initialShadingGroup
f 25/25/25 26/26/26 28/27/27 27/28/28
g default
v 7.069848 1.705585 0.000000
v 7.069848 4.705585 0.000000
v 4.069848 1.705585 0.000000
v 4.069848 4.705585 0.000000
vt 0.982909 0.013291
vt 0.982909 0.979108
vt 0.017092 0.979108
vt 0.017092 0.013291
vn 0.000000 0.000000 1.000000
vn 0.000000 0.000000 1.000000
vn 0.000000 0.000000 1.000000
vn 0.000000 0.000000 1.000000
s off
g Basic_Walls W_3x3
usemtl initialShadingGroup
f 29/29/29 30/30/30 32/31/31 31/32/32
g default
v 1.393810 1.741960 0.000000
v 1.393810 4.741960 0.000000
v 0.393810 1.741960 0.000000
v 0.393810 4.741960 0.000000
vt 0.660970 0.013292
vt 0.660970 0.979108
vt 0.339030 0.979108
vt 0.339030 0.013292
vn 0.000000 0.000000 1.000000
vn 0.000000 0.000000 1.000000
vn 0.000000 0.000000 1.000000
vn 0.000000 0.000000 1.000000
s off
g Basic_Walls W_3x2
usemtl initialShadingGroup
f 33/33/33 34/34/34 36/35/35 35/36/36
g default
v -4.216210 1.741959 0.000000
v -3.216210 1.741959 0.000000
v -4.216210 2.741959 0.000000
v -3.216210 2.741959 0.000000
vt 0.339031 0.335230
vt 0.660969 0.335230
vt 0.660969 0.657169
vt 0.339031 0.657169
vn 0.000000 0.000000 1.000000
vn 0.000000 0.000000 1.000000
vn 0.000000 0.000000 1.000000
vn 0.000000 0.000000 1.000000
s off
g Basic_Walls W_1x1
usemtl initialShadingGroup
f 37/37/37 38/38/38 40/39/39 39/40/40
g default
v -4.369936 1.741960 0.000000
v -4.369936 4.741960 0.000000
v -4.869936 1.741960 0.000000
v -4.869936 4.741960 0.000000
vt 0.580485 0.013292
vt 0.580485 0.979107
vt 0.419515 0.979107
vt 0.419515 0.013292
vn 0.000000 0.000000 1.000000
vn 0.000000 0.000000 1.000000
vn 0.000000 0.000000 1.000000
vn 0.000000 0.000000 1.000000
s off
g Basic_Walls W_3x0_5
usemtl initialShadingGroup
f 41/41/41 42/42/42 44/43/43 43/44/44
g default
v -3.683449 0.404355 0.000000
v -1.683449 0.404355 0.000000
v -3.683449 1.404355 0.000000
v -1.683449 1.404355 0.000000
vt 0.178061 0.335230
vt 0.821939 0.335230
vt 0.821939 0.657169
vt 0.178061 0.657169
vn 0.000000 0.000000 1.000000
vn 0.000000 0.000000 1.000000
vn 0.000000 0.000000 1.000000
vn 0.000000 0.000000 1.000000
s off
g Basic_Walls W_1x2
usemtl initialShadingGroup
f 45/45/45 46/46/46 48/47/47 47/48/48
g default
v -5.862667 0.995047 0.000000
v -3.862667 0.995047 0.000000
v -5.862667 1.495047 0.000000
v -3.862667 1.495047 0.000000
vt 0.178061 0.415715
vt 0.821940 0.415715
vt 0.821940 0.576684
vt 0.178061 0.576684
vn 0.000000 0.000000 1.000000
vn 0.000000 0.000000 1.000000
vn 0.000000 0.000000 1.000000
vn 0.000000 0.000000 1.000000
s off
g Basic_Walls W_0_5x2
usemtl initialShadingGroup
f 49/49/49 50/50/50 52/51/51 51/52/52
g default
v -5.909664 1.741960 0.000000
v -5.909664 2.741960 0.000000
v -6.409664 1.741960 0.000000
v -6.409664 2.741960 0.000000
vt 0.580485 0.335230
vt 0.580485 0.657169
vt 0.419515 0.657169
vt 0.419515 0.335230
vn 0.000000 0.000000 1.000000
vn 0.000000 0.000000 1.000000
vn 0.000000 0.000000 1.000000
vn 0.000000 0.000000 1.000000
s off
g Basic_Walls W_1x0_5
usemtl initialShadingGroup
f 53/53/53 54/54/54 56/55/55 55/56/56
g default
v -1.556391 0.399334 0.000000
v 1.443609 0.399334 0.000000
v -1.556391 1.399334 0.000000
v 1.443609 1.399334 0.000000
vt 0.017092 0.335230
vt 0.982908 0.335230
vt 0.982908 0.657169
vt 0.017092 0.657169
vn 0.000000 0.000000 1.000000
vn 0.000000 0.000000 1.000000
vn 0.000000 0.000000 1.000000
vn 0.000000 0.000000 1.000000
s off
g Basic_Walls W_1x3
usemtl initialShadingGroup
f 57/57/57 58/58/58 60/59/59 59/60/60
g default
v 3.768107 4.724573 0.000000
v 1.768107 4.724573 0.000000
v 3.768107 1.724573 0.000000
v 1.768107 1.724573 0.000000
vt 0.821939 0.979108
vt 0.178061 0.979108
vt 0.178061 0.013292
vt 0.821939 0.013292
vn 0.000000 0.000000 1.000000
vn 0.000000 0.000000 1.000000
vn 0.000000 0.000000 1.000000
vn 0.000000 0.000000 1.000000
s off
g Basic_Walls W_3x6
usemtl initialShadingGroup
f 61/61/61 62/62/62 64/63/63 63/64/64
