# This file uses centimeters as units for non-parametric coordinates.

mtllib P_W_C_I.mtl
g default
v -7.069848 -4.100345 -1.500000
v -6.569848 -4.100345 -1.500000
v -7.069848 -3.600345 -1.500000
v -6.569848 -3.600345 -1.500000
v -6.569848 -4.100345 -1.000000
v -6.569848 -3.600345 -1.000000
vt 0.420102 0.456251
vt 0.500000 0.456251
vt 0.500000 0.536149
vt 0.420102 0.536149
vt 0.579898 0.456251
vt 0.579898 0.536149
vn 0.000000 0.000000 1.000000
vn 0.000000 0.000000 1.000000
vn 0.000000 0.000000 1.000000
vn 0.000000 0.000000 1.000000
vn -1.000000 0.000000 0.000000
vn -1.000000 0.000000 0.000000
vn -1.000000 0.000000 0.000000
vn -1.000000 0.000000 0.000000
s off
g W_C_I_0_5x0_5 Inside_Corner
usemtl initialShadingGroup
f 1/1/1 2/2/2 4/3/3 3/4/4
f 4/3/5 2/2/6 5/5/7 6/6/8
g default
v 1.393810 -4.100345 -1.500000
v 1.393810 -1.100345 -1.500000
v 0.393810 -4.100345 -1.500000
v 0.393810 -1.100345 -1.500000
v 1.393810 -4.100345 -0.500000
v 1.393810 -1.100345 -0.500000
vt 0.500000 0.256507
vt 0.500000 0.735892
vt 0.340205 0.735892
vt 0.340205 0.256507
vt 0.659795 0.256507
vt 0.659795 0.735892
vn 0.000000 0.000000 1.000000
vn 0.000000 0.000000 1.000000
vn 0.000000 0.000000 1.000000
vn 0.000000 0.000000 1.000000
vn -1.000000 0.000000 0.000000
vn -1.000000 0.000000 0.000000
vn -1.000000 0.000000 0.000000
vn -1.000000 0.000000 0.000000
s off
g Inside_Corner W_C_I_3x1
usemtl initialShadingGroup
f 7/7/9 8/8/10 10/9/11 9/10/12
f 8/8/13 7/7/14 11/11/15 12/12/16
g default
v -7.038283 -4.842053 -1.500000
v -6.038283 -4.842053 -1.500000
v -7.038283 -4.342053 -1.500000
v -6.038283 -4.342053 -1.500000
v -6.038283 -4.842053 -0.500000
v -6.038283 -4.342053 -0.500000
vt 0.340205 0.456251
vt 0.500000 0.456251
vt 0.500000 0.536149
vt 0.340205 0.536149
vt 0.659795 0.456251
vt 0.659795 0.536149
vn 0.000000 0.000000 1.000000
vn 0.000000 0.000000 1.000000
vn 0.000000 0.000000 1.000000
vn 0.000000 0.000000 1.000000
vn -1.000000 0.000000 0.000000
vn -1.000000 0.000000 0.000000
vn -1.000000 0.000000 0.000000
vn -1.000000 0.000000 0.000000
s off
g Inside_Corner W_C_I_0_5x1
usemtl initialShadingGroup
f 13/13/17 14/14/18 16/15/19 15/16/20
f 16/15/21 14/14/22 17/17/23 18/18/24
g default
v -3.683449 -5.437950 -1.500000
v -1.683449 -5.437950 -1.500000
v -3.683449 -4.437950 -1.500000
v -1.683449 -4.437950 -1.500000
v -1.683449 -5.437950 0.500000
v -1.683449 -4.437950 0.500000
vt 0.180409 0.416302
vt 0.500000 0.416302
vt 0.500000 0.576097
vt 0.180409 0.576097
vt 0.819591 0.416302
vt 0.819591 0.576097
vn 0.000000 0.000000 1.000000
vn 0.000000 0.000000 1.000000
vn 0.000000 0.000000 1.000000
vn 0.000000 0.000000 1.000000
vn -1.000000 0.000000 0.000000
vn -1.000000 0.000000 0.000000
vn -1.000000 0.000000 0.000000
vn -1.000000 0.000000 0.000000
s off
g Inside_Corner W_C_I_1x2
usemtl initialShadingGroup
f 19/19/25 20/20/26 22/21/27 21/22/28
f 22/21/29 20/20/30 23/23/31 24/24/32
g default
v 4.731499 -6.372681 -1.500000
v 4.731499 -4.372681 -1.500000
v 1.731499 -6.372681 -1.500000
v 1.731499 -4.372681 -1.500000
v 4.731499 -6.372681 1.500000
v 4.731499 -4.372681 1.500000
vt 0.500000 0.336405
vt 0.500000 0.655995
vt 0.020614 0.655995
vt 0.020614 0.336405
vt 0.979386 0.336405
vt 0.979386 0.655995
vn 0.000000 0.000000 1.000000
vn 0.000000 0.000000 1.000000
vn 0.000000 0.000000 1.000000
vn 0.000000 0.000000 1.000000
vn -1.000000 0.000000 0.000000
vn -1.000000 0.000000 0.000000
vn -1.000000 0.000000 0.000000
vn -1.000000 0.000000 0.000000
s off
g Inside_Corner W_C_I_2x3
usemtl initialShadingGroup
f 25/25/33 26/26/34 28/27/35 27/28/36
f 26/26/37 25/25/38 29/29/39 30/30/40
g default
v -6.996786 -5.483416 -1.500000
v -3.996786 -5.483416 -1.500000
v -6.996786 -4.983416 -1.500000
v -3.996786 -4.983416 -1.500000
v -3.996786 -5.483416 1.500000
v -3.996786 -4.983416 1.500000
vt 0.020614 0.456251
vt 0.500000 0.456251
vt 0.500000 0.536149
vt 0.020614 0.536149
vt 0.979386 0.456251
vt 0.979386 0.536149
vn 0.000000 0.000000 1.000000
vn 0.000000 0.000000 1.000000
vn 0.000000 0.000000 1.000000
vn 0.000000 0.000000 1.000000
vn -1.000000 0.000000 0.000000
vn -1.000000 0.000000 0.000000
vn -1.000000 0.000000 0.000000
vn -1.000000 0.000000 0.000000
s off
g Inside_Corner W_C_I_0_5x3
usemtl initialShadingGroup
f 31/31/41 32/32/42 34/33/43 33/34/44
f 34/33/45 32/32/46 35/35/47 36/36/48
g default
v -2.111770 -4.100345 -1.500000
v -2.111770 -2.100345 -1.500000
v -3.111771 -4.100345 -1.500000
v -3.111771 -2.100345 -1.500000
v -2.111770 -4.100345 -0.500000
v -2.111770 -2.100345 -0.500000
vt 0.500000 0.336405
vt 0.500000 0.655995
vt 0.340205 0.655995
vt 0.340205 0.336405
vt 0.659795 0.336405
vt 0.659795 0.655995
vn 0.000000 0.000000 1.000000
vn 0.000000 0.000000 1.000000
vn 0.000000 0.000000 1.000000
vn 0.000000 0.000000 1.000000
vn -1.000000 0.000000 0.000000
vn -1.000000 0.000000 0.000000
vn -1.000000 0.000000 0.000000
vn -1.000000 0.000000 0.000000
s off
g Inside_Corner W_C_I_2x1
usemtl initialShadingGroup
f 37/37/49 38/38/50 40/39/51 39/40/52
f 38/38/53 37/37/54 41/41/55 42/42/56
g default
v 7.069848 -4.136719 -1.500000
v 7.069848 -1.136719 -1.500000
v 4.069848 -4.136719 -1.500000
v 4.069848 -1.136719 -1.500000
v 7.069848 -4.136719 1.500000
v 7.069848 -1.136719 1.500000
vt 0.500000 0.256507
vt 0.500000 0.735893
vt 0.020614 0.735893
vt 0.020614 0.256507
vt 0.979386 0.256507
vt 0.979386 0.735893
vn 0.000000 0.000000 1.000000
vn 0.000000 0.000000 1.000000
vn 0.000000 0.000000 1.000000
vn 0.000000 0.000000 1.000000
vn -1.000000 0.000000 0.000000
vn -1.000000 0.000000 0.000000
vn -1.000000 0.000000 0.000000
vn -1.000000 0.000000 0.000000
s off
g Inside_Corner W_C_I_3x3
usemtl initialShadingGroup
f 43/43/57 44/44/58 46/45/59 45/46/60
f 44/44/61 43/43/62 47/47/63 48/48/64
g default
v 3.768107 -1.117731 -1.500000
v 1.768107 -1.117731 -1.500000
v 3.768107 -4.117731 -1.500000
v 1.768107 -4.117731 -1.500000
v 3.768107 -1.117731 0.500000
v 3.768107 -4.117731 0.500000
vt 0.500000 0.735893
vt 0.180410 0.735893
vt 0.180410 0.256507
vt 0.500000 0.256507
vt 0.819591 0.256507
vt 0.819591 0.735893
vn 0.000000 0.000000 1.000000
vn 0.000000 0.000000 1.000000
vn 0.000000 0.000000 1.000000
vn 0.000000 0.000000 1.000000
vn -1.000000 0.000000 0.000000
vn -1.000000 0.000000 0.000000
vn -1.000000 0.000000 0.000000
vn -1.000000 0.000000 0.000000
s off
g Inside_Corner W_C_I_3x2
usemtl initialShadingGroup
f 49/49/65 50/50/66 52/51/67 51/52/68
f 49/49/69 51/52/70 54/53/71 53/54/72
g default
v -5.909664 -4.100345 -1.500000
v -5.909664 -3.100345 -1.500000
v -6.409664 -4.100345 -1.500000
v -6.409664 -3.100345 -1.500000
v -5.909664 -4.100345 -1.000000
v -5.909664 -3.100345 -1.000000
vt 0.500000 0.416302
vt 0.500000 0.576097
vt 0.420102 0.576097
vt 0.420102 0.416302
vt 0.579898 0.416302
vt 0.579897 0.576097
vn 0.000000 0.000000 1.000000
vn 0.000000 0.000000 1.000000
vn 0.000000 0.000000 1.000000
vn 0.000000 0.000000 1.000000
vn -1.000000 0.000000 0.000000
vn -1.000000 0.000000 0.000000
vn -1.000000 0.000000 0.000000
vn -1.000000 0.000000 0.000000
s off
g Inside_Corner W_C_I_1x0_5
usemtl initialShadingGroup
f 55/55/73 56/56/74 58/57/75 57/58/76
f 56/56/77 55/55/78 59/59/79 60/60/80
g default
v -1.556391 -5.442970 -1.500000
v 1.443609 -5.442970 -1.500000
v -1.556391 -4.442970 -1.500000
v 1.443609 -4.442970 -1.500000
v 1.443609 -5.442970 1.500000
v 1.443609 -4.442970 1.500000
vt 0.020614 0.416302
vt 0.500000 0.416302
vt 0.500000 0.576097
vt 0.020614 0.576097
vt 0.979386 0.416302
vt 0.979386 0.576097
vn 0.000000 0.000000 1.000000
vn 0.000000 0.000000 1.000000
vn 0.000000 0.000000 1.000000
vn 0.000000 0.000000 1.000000
vn -1.000000 0.000000 0.000000
vn -1.000000 0.000000 0.000000
vn -1.000000 0.000000 0.000000
vn -1.000000 0.000000 0.000000
s off
g Inside_Corner W_C_I_1x3
usemtl initialShadingGroup
f 61/61/81 62/62/82 64/63/83 63/64/84
f 64/63/85 62/62/86 65/65/87 66/66/88
g default
v -5.862667 -4.847257 -1.500000
v -3.862667 -4.847257 -1.500000
v -5.862667 -4.347257 -1.500000
v -3.862667 -4.347257 -1.500000
v -3.862667 -4.847257 0.500000
v -3.862667 -4.347257 0.500000
vt 0.180409 0.456251
vt 0.500000 0.456251
vt 0.500000 0.536149
vt 0.180409 0.536149
vt 0.819591 0.456251
vt 0.819591 0.536149
vn 0.000000 0.000000 1.000000
vn 0.000000 0.000000 1.000000
vn 0.000000 0.000000 1.000000
vn 0.000000 0.000000 1.000000
vn -1.000000 0.000000 0.000000
vn -1.000000 0.000000 0.000000
vn -1.000000 0.000000 0.000000
vn -1.000000 0.000000 0.000000
s off
g Inside_Corner W_C_I_0_5x2
usemtl initialShadingGroup
f 67/67/89 68/68/90 70/69/91 69/70/92
f 70/69/93 68/68/94 71/71/95 72/72/96
g default
v -5.107996 -4.100345 -1.500000
v -5.107996 -2.100345 -1.500000
v -5.607996 -4.100345 -1.500000
v -5.607996 -2.100345 -1.500000
v -5.107996 -4.100345 -1.000000
v -5.107996 -2.100345 -1.000000
vt 0.500000 0.336405
vt 0.500000 0.655995
vt 0.420102 0.655995
vt 0.420102 0.336405
vt 0.579898 0.336405
vt 0.579898 0.655995
vn 0.000000 0.000000 1.000000
vn 0.000000 0.000000 1.000000
vn 0.000000 0.000000 1.000000
vn 0.000000 0.000000 1.000000
vn -1.000000 0.000000 0.000000
vn -1.000000 0.000000 0.000000
vn -1.000000 0.000000 0.000000
vn -1.000000 0.000000 0.000000
s off
g Inside_Corner W_C_I_2x0_5
usemtl initialShadingGroup
f 73/73/97 74/74/98 76/75/99 75/76/100
f 74/74/101 73/73/102 77/77/103 78/78/104
g default
v -1.859355 -4.100345 -1.500000
v 0.140645 -4.100345 -1.500000
v -1.859355 -2.100345 -1.500000
v 0.140645 -2.100345 -1.500000
v 0.140645 -4.100345 0.500000
v 0.140645 -2.100345 0.500000
vt 0.180410 0.336405
vt 0.500000 0.336405
vt 0.500000 0.655995
vt 0.180410 0.655995
vt 0.819591 0.336405
vt 0.819591 0.655995
vn 0.000000 0.000000 1.000000
vn 0.000000 0.000000 1.000000
vn 0.000000 0.000000 1.000000
vn 0.000000 0.000000 1.000000
vn -1.000000 0.000000 0.000000
vn -1.000000 0.000000 0.000000
vn -1.000000 0.000000 0.000000
vn -1.000000 0.000000 0.000000
s off
g Inside_Corner W_C_I_2x2
usemtl initialShadingGroup
f 79/79/105 80/80/106 82/81/107 81/82/108
f 82/81/109 80/80/110 83/83/111 84/84/112
g default
v -4.216210 -4.100345 -1.500000
v -3.216210 -4.100345 -1.500000
v -4.216210 -3.100345 -1.500000
v -3.216210 -3.100345 -1.500000
v -3.216210 -4.100345 -0.500000
v -3.216210 -3.100345 -0.500000
vt 0.340205 0.416302
vt 0.500000 0.416302
vt 0.500000 0.576097
vt 0.340205 0.576097
vt 0.659795 0.416302
vt 0.659795 0.576097
vn 0.000000 0.000000 1.000000
vn 0.000000 0.000000 1.000000
vn 0.000000 0.000000 1.000000
vn 0.000000 0.000000 1.000000
vn -1.000000 0.000000 0.000000
vn -1.000000 0.000000 0.000000
vn -1.000000 0.000000 0.000000
vn -1.000000 0.000000 0.000000
s off
g Inside_Corner W_C_I_1x1
usemtl initialShadingGroup
f 85/85/113 86/86/114 88/87/115 87/88/116
f 88/87/117 86/86/118 89/89/119 90/90/120
g default
v -4.369936 -4.100345 -1.500000
v -4.369936 -1.100345 -1.500000
v -4.869936 -4.100345 -1.500000
v -4.869936 -1.100345 -1.500000
v -4.369936 -4.100345 -1.000000
v -4.369936 -1.100345 -1.000000
vt 0.500000 0.256507
vt 0.500000 0.735893
vt 0.420102 0.735893
vt 0.420103 0.256507
vt 0.579898 0.256507
vt 0.579898 0.735893
vn 0.000000 0.000000 1.000000
vn 0.000000 0.000000 1.000000
vn 0.000000 0.000000 1.000000
vn 0.000000 0.000000 1.000000
vn -1.000000 0.000000 0.000000
vn -1.000000 0.000000 0.000000
vn -1.000000 0.000000 0.000000
vn -1.000000 0.000000 0.000000
s off
g Inside_Corner W_C_I_3x0_5
usemtl initialShadingGroup
f 91/91/121 92/92/122 94/93/123 93/94/124
f 92/92/125 91/91/126 95/95/127 96/96/128
