# This file uses centimeters as units for non-parametric coordinates.

mtllib 2x1.mtl
g default
v 0.500000 -1.000000 0.500000
v 0.500000 1.000000 0.500000
v -0.500000 -1.000000 0.500000
v -0.500000 1.000000 0.500000
v 0.500000 -1.000000 -0.500000
v 0.500000 1.000000 -0.500000
vt 0.500000 0.336405
vt 0.500000 0.655995
vt 0.340205 0.655995
vt 0.340205 0.336405
vt 0.659795 0.336405
vt 0.659795 0.655995
vn 0.000000 0.000000 1.000000
vn 0.000000 0.000000 1.000000
vn 0.000000 0.000000 1.000000
vn 0.000000 0.000000 1.000000
vn 1.000000 0.000000 0.000000
vn 1.000000 0.000000 0.000000
vn 1.000000 0.000000 0.000000
vn 1.000000 0.000000 0.000000
s off
g W_C_O_2x1 Outside_Corner
usemtl initialShadingGroup
f 1/1/1 2/2/2 4/3/3 3/4/4
f 2/2/5 1/1/6 5/5/7 6/6/8
